<svg width="21" height="26" viewBox="0 0 21 26" fill="none" xmlns="http://www.w3.org/2000/svg">
<path fill-rule="evenodd" clip-rule="evenodd" d="M10.4917 15.9536C14.7672 15.9536 20.4517 16.435 20.4517 20.6003C20.4517 24.988 13.828 25.2513 10.9868 25.2671L9.95524 25.2671C6.92583 25.2514 0.531677 24.9896 0.531677 20.6266C0.531677 16.2339 7.15535 15.9704 9.99655 15.9546L10.3379 15.9536C10.3911 15.9536 10.4424 15.9536 10.4917 15.9536ZM10.4917 17.9214C6.84588 17.9214 2.49954 18.3898 2.49954 20.6266C2.49954 22.4003 5.18895 23.3002 10.4917 23.3002C15.7944 23.3002 18.4838 22.3911 18.4838 20.6003C18.4838 18.8227 15.7944 17.9214 10.4917 17.9214ZM10.4917 0.26709C14.2057 0.26709 17.2284 3.28972 17.2284 7.00373C17.2362 8.79317 16.5422 10.4829 15.2775 11.7555C14.0155 13.0293 12.3297 13.7338 10.5363 13.7404H10.4917C6.77635 13.7404 3.75372 10.7177 3.75372 7.00373C3.75372 3.28972 6.77635 0.26709 10.4917 0.26709ZM10.4917 2.23495C7.8613 2.23495 5.72158 4.37467 5.72158 7.00373C5.72158 9.63279 7.8613 11.7725 10.4917 11.7725H10.5323C11.797 11.7673 12.9882 11.27 13.8816 10.3688C14.7764 9.47011 15.2657 8.27497 15.2605 7.00767C15.2605 4.37467 13.1207 2.23495 10.4917 2.23495Z" fill="#E63946"/>
</svg>
